<?xml version="1.0" encoding="utf-8"?>
<!-- Generator: Adobe Illustrator 23.0.3, SVG Export Plug-In . SVG Version: 6.00 Build 0)  -->
<svg version="1.1" xmlns="http://www.w3.org/2000/svg" xmlns:xlink="http://www.w3.org/1999/xlink" x="0px" y="0px"
	 viewBox="0 0 1280 720" enable-background="new 0 0 1280 720" xml:space="preserve">
<g id="ampoule_2_">
	<g id="ampoule_1_">
		<path fill="#EE5148" d="M622.9,135.8h34.9c0.2-5.8,1.8-10.8,5.3-14.8c13.3-14.8,14.1-30.8,1.3-47.9c-16.2-13.2-32.4-13.2-48.6,0
			c-12.7,15.8-11.8,31,0,45.8C620.4,124.6,623.1,130.1,622.9,135.8z"/>
	</g>
</g>
<g id="element_1_">
	<g id="element">
		<g id="Layer_4">
			<path fill="none" stroke="#EA7F7F" stroke-width="5" stroke-linecap="round" stroke-miterlimit="10" d="M625,94.1
				c2.6-0.9,4.2-0.1,4.8,2.5c2.8,3.7,5.2,4.1,7.1,0c2.6-3.5,5-4.2,7.1,0c2.5,3.4,4.9,4.4,6.9,0c1-3.2,2.6-3.8,4.6-2.5"/>
		</g>
	</g>
</g>
<g id="base_x5F_ampoule">
	<g id="Layer_11">
		<g id="baseampoule">
			<rect x="599.5" y="135.8" fill="#706C69" width="81.2" height="27.8"/>
		</g>
	</g>
</g>
<g id="base">
	<rect x="532.6" y="163.6" fill="#4ABBB7" width="214.8" height="372.6"/>
	<rect x="743.1" y="393.2" fill="#4ABBB7" width="142.2" height="143"/>
</g>
<g id="bouton1">
	<g id="Layer_9">
		<circle fill="#156833" cx="640.1" cy="303.4" r="26.6"/>
	</g>
</g>
<g id="bouton2">
	<circle fill="#B53633" cx="640" cy="386.6" r="26.6"/>
</g>
</svg>
