<?xml version="1.0" encoding="utf-8"?>
<!-- Generator: Adobe Illustrator 23.0.3, SVG Export Plug-In . SVG Version: 6.00 Build 0)  -->
<svg version="1.1" xmlns="http://www.w3.org/2000/svg" xmlns:xlink="http://www.w3.org/1999/xlink" x="0px" y="0px"
	 viewBox="0 0 1920 1080" enable-background="new 0 0 1920 1080" xml:space="preserve">
<g id="Layer_8">
	<rect x="728.8" y="500.3" fill="#4ABBB7" stroke="#000000" stroke-width="2" stroke-miterlimit="10" width="153.2" height="15.3"/>
	<rect x="732.9" y="485.5" stroke="#000000" stroke-width="2" stroke-miterlimit="10" width="42.9" height="13.8"/>
</g>
<g id="pieces">
	<rect x="805.8" y="296.7" fill="#F2CB4A" stroke="#000000" stroke-width="2" stroke-miterlimit="10" width="72.4" height="10.2"/>
	<rect x="882.5" y="296.6" fill="#F2CB4A" stroke="#000000" stroke-width="2" stroke-miterlimit="10" width="72.4" height="10.2"/>
	<rect x="1034.8" y="296.5" fill="#F2CB4A" stroke="#000000" stroke-width="2" stroke-miterlimit="10" width="72.4" height="10.2"/>
	<rect x="957.8" y="296.5" fill="#F2CB4A" stroke="#000000" stroke-width="2" stroke-miterlimit="10" width="72.4" height="10.2"/>
	<rect x="1046" y="273" fill="#F2CB4A" stroke="#000000" stroke-width="2" stroke-miterlimit="10" width="72.4" height="10.2"/>
	<rect x="1028" y="284.5" fill="#F2CB4A" stroke="#000000" stroke-width="2" stroke-miterlimit="10" width="72.4" height="10.2"/>
	<rect x="951.4" y="285" fill="#F2CB4A" stroke="#000000" stroke-width="2" stroke-miterlimit="10" width="72.4" height="10.2"/>
	<rect x="875.7" y="284.5" fill="#F2CB4A" stroke="#000000" stroke-width="2" stroke-miterlimit="10" width="72.4" height="10.2"/>
	<rect x="800.5" y="285" fill="#F2CB4A" stroke="#000000" stroke-width="2" stroke-miterlimit="10" width="72.4" height="10.2"/>
	<rect x="1031.5" y="261.9" fill="#F2CB4A" stroke="#000000" stroke-width="2" stroke-miterlimit="10" width="72.4" height="10.2"/>
	<rect x="940" y="261.9" fill="#F2CB4A" stroke="#000000" stroke-width="2" stroke-miterlimit="10" width="72.4" height="10.2"/>
	<rect x="866.1" y="263.1" fill="#F2CB4A" stroke="#000000" stroke-width="2" stroke-miterlimit="10" width="72.4" height="10.2"/>
	<rect x="791.7" y="262.7" fill="#F2CB4A" stroke="#000000" stroke-width="2" stroke-miterlimit="10" width="72.4" height="10.2"/>
	<rect x="820.8" y="274.3" fill="#F2CB4A" stroke="#000000" stroke-width="2" stroke-miterlimit="10" width="72.4" height="10.2"/>
	<rect x="896" y="273.4" fill="#F2CB4A" stroke="#000000" stroke-width="2" stroke-miterlimit="10" width="72.4" height="10.2"/>
	<rect x="970.8" y="273" fill="#F2CB4A" stroke="#000000" stroke-width="2" stroke-miterlimit="10" width="72.4" height="10.2"/>
	<rect x="796.6" y="251.4" fill="#F2CB4A" stroke="#000000" stroke-width="2" stroke-miterlimit="10" width="72.4" height="10.2"/>
	<rect x="879.7" y="251.6" fill="#F2CB4A" stroke="#000000" stroke-width="2" stroke-miterlimit="10" width="72.4" height="10.2"/>
	<rect x="967.7" y="250.4" fill="#F2CB4A" stroke="#000000" stroke-width="2" stroke-miterlimit="10" width="72.4" height="10.2"/>
	<rect x="1058.3" y="250.8" fill="#F2CB4A" stroke="#000000" stroke-width="2" stroke-miterlimit="10" width="72.4" height="10.2"/>
	<rect x="947.4" y="239.2" fill="#F2CB4A" stroke="#000000" stroke-width="2" stroke-miterlimit="10" width="72.4" height="10.2"/>
	<rect x="856.4" y="239.7" fill="#F2CB4A" stroke="#000000" stroke-width="2" stroke-miterlimit="10" width="72.4" height="10.2"/>
	<rect x="782" y="240.1" fill="#F2CB4A" stroke="#000000" stroke-width="2" stroke-miterlimit="10" width="72.4" height="10.2"/>
	<rect x="911.8" y="228.1" fill="#F2CB4A" stroke="#000000" stroke-width="2" stroke-miterlimit="10" width="72.4" height="10.2"/>
	<rect x="991.4" y="228.5" fill="#F2CB4A" stroke="#000000" stroke-width="2" stroke-miterlimit="10" width="72.4" height="10.2"/>
	<rect x="1068" y="228.9" fill="#F2CB4A" stroke="#000000" stroke-width="2" stroke-miterlimit="10" width="72.4" height="10.2"/>
	<rect x="1046.9" y="239.7" fill="#F2CB4A" stroke="#000000" stroke-width="2" stroke-miterlimit="10" width="72.4" height="10.2"/>
	
		<rect x="846.7" y="217" transform="matrix(1 -5.779076e-03 5.779076e-03 1 -1.2687 5.1062)" fill="#F2CB4A" stroke="#000000" stroke-width="2" stroke-miterlimit="10" width="72.4" height="10.2"/>
	<rect x="756.5" y="182.8" fill="#F2CB4A" stroke="#000000" stroke-width="2" stroke-miterlimit="10" width="72.4" height="10.2"/>
	<rect x="996.3" y="217.8" fill="#F2CB4A" stroke="#000000" stroke-width="2" stroke-miterlimit="10" width="72.4" height="10.2"/>
	<rect x="1071.5" y="217.4" fill="#F2CB4A" stroke="#000000" stroke-width="2" stroke-miterlimit="10" width="72.4" height="10.2"/>
	<rect x="766.2" y="205.1" fill="#F2CB4A" stroke="#000000" stroke-width="2" stroke-miterlimit="10" width="72.4" height="10.2"/>
	<rect x="836.1" y="228.9" fill="#F2CB4A" stroke="#000000" stroke-width="2" stroke-miterlimit="10" width="72.4" height="10.2"/>
	<rect x="772.4" y="217.8" fill="#F2CB4A" stroke="#000000" stroke-width="2" stroke-miterlimit="10" width="72.4" height="10.2"/>
	<rect x="1023.6" y="161.8" fill="#F2CB4A" stroke="#000000" stroke-width="2" stroke-miterlimit="10" width="72.4" height="10.2"/>
	<rect x="1020" y="172.7" fill="#F2CB4A" stroke="#000000" stroke-width="2" stroke-miterlimit="10" width="72.4" height="10.2"/>
	<rect x="987" y="184.9" fill="#F2CB4A" stroke="#000000" stroke-width="2" stroke-miterlimit="10" width="72.4" height="10.2"/>
	<rect x="922.8" y="217" fill="#F2CB4A" stroke="#000000" stroke-width="2" stroke-miterlimit="10" width="72.4" height="10.2"/>
	<rect x="921.9" y="206.3" fill="#F2CB4A" stroke="#000000" stroke-width="2" stroke-miterlimit="10" width="72.4" height="10.2"/>
	<rect x="1008.2" y="195.6" fill="#F2CB4A" stroke="#000000" stroke-width="2" stroke-miterlimit="10" width="72.4" height="10.2"/>
	<rect x="1001.1" y="206.3" fill="#F2CB4A" stroke="#000000" stroke-width="2" stroke-miterlimit="10" width="72.4" height="10.2"/>
	<polygon fill="#F2CB4A" stroke="#000000" stroke-width="2" stroke-miterlimit="10" points="1140.4,170.2 1069.9,154.5 
		1072.4,144.7 1142.9,160.3 	"/>
	<rect x="1095.3" y="171.7" fill="#F2CB4A" stroke="#000000" stroke-width="2" stroke-miterlimit="10" width="72.4" height="10.2"/>
	<rect x="1088.2" y="183.2" fill="#F2CB4A" stroke="#000000" stroke-width="2" stroke-miterlimit="10" width="72.4" height="10.2"/>
	<rect x="1083.8" y="195.2" fill="#F2CB4A" stroke="#000000" stroke-width="2" stroke-miterlimit="10" width="72.4" height="10.2"/>
	<rect x="1079" y="205.9" fill="#F2CB4A" stroke="#000000" stroke-width="2" stroke-miterlimit="10" width="72.4" height="10.2"/>
	<polygon fill="#F2CB4A" stroke="#000000" stroke-width="2" stroke-miterlimit="10" points="1121.3,130.3 1054.1,105 1058.1,95.6 
		1125.3,120.9 	"/>
	<rect x="768" y="194.8" fill="#F2CB4A" stroke="#000000" stroke-width="2" stroke-miterlimit="10" width="72.4" height="10.2"/>
	<rect x="937.8" y="173.8" fill="#F2CB4A" stroke="#000000" stroke-width="2" stroke-miterlimit="10" width="72.4" height="10.2"/>
	<rect x="904.8" y="183.2" fill="#F2CB4A" stroke="#000000" stroke-width="2" stroke-miterlimit="10" width="72.4" height="10.2"/>
	<polygon fill="#F2CB4A" stroke="#000000" stroke-width="2" stroke-miterlimit="10" points="884.2,114.7 812.1,108.9 813,98.8 
		885.2,104.6 	"/>
	<rect x="842.3" y="206.3" fill="#F2CB4A" stroke="#000000" stroke-width="2" stroke-miterlimit="10" width="72.4" height="10.2"/>
	<rect x="893.8" y="126.4" fill="#F2CB4A" stroke="#000000" stroke-width="2" stroke-miterlimit="10" width="72.4" height="10.2"/>
	<rect x="939.5" y="137.9" fill="#F2CB4A" stroke="#000000" stroke-width="2" stroke-miterlimit="10" width="72.4" height="10.2"/>
	<rect x="969.4" y="149.5" fill="#F2CB4A" stroke="#000000" stroke-width="2" stroke-miterlimit="10" width="72.4" height="10.2"/>
	<polygon fill="#F2CB4A" stroke="#000000" stroke-width="2" stroke-miterlimit="10" points="891.2,137.5 819.1,131.5 820.1,121.3 
		892.2,127.4 	"/>
	<rect x="864.7" y="137.9" fill="#F2CB4A" stroke="#000000" stroke-width="2" stroke-miterlimit="10" width="72.4" height="10.2"/>
	<polygon fill="#F2CB4A" stroke="#000000" stroke-width="2" stroke-miterlimit="10" points="861,148.3 789.1,139.6 790.5,129.5 
		862.4,138.2 	"/>
	<rect x="894.7" y="149.5" fill="#F2CB4A" stroke="#000000" stroke-width="2" stroke-miterlimit="10" width="72.4" height="10.2"/>
	<rect x="821.2" y="149" fill="#F2CB4A" stroke="#000000" stroke-width="2" stroke-miterlimit="10" width="72.4" height="10.2"/>
	<polygon fill="#F2CB4A" stroke="#000000" stroke-width="2" stroke-miterlimit="10" points="821.2,153.9 752.9,176.3 749.3,166.7 
		817.7,144.3 	"/>
	<rect x="800.5" y="161.4" fill="#F2CB4A" stroke="#000000" stroke-width="2" stroke-miterlimit="10" width="72.4" height="10.2"/>
	<rect x="774.1" y="172.1" fill="#F2CB4A" stroke="#000000" stroke-width="2" stroke-miterlimit="10" width="72.4" height="10.2"/>
	<rect x="875.3" y="162.2" fill="#F2CB4A" stroke="#000000" stroke-width="2" stroke-miterlimit="10" width="72.4" height="10.2"/>
	<polygon fill="#F2CB4A" stroke="#000000" stroke-width="2" stroke-miterlimit="10" points="902.2,204.5 830.9,192.4 832.9,182.4 
		904.1,194.5 	"/>
	<rect x="949.2" y="162.6" fill="#F2CB4A" stroke="#000000" stroke-width="2" stroke-miterlimit="10" width="72.4" height="10.2"/>
	<rect x="859" y="172.9" fill="#F2CB4A" stroke="#000000" stroke-width="2" stroke-miterlimit="10" width="72.4" height="10.2"/>
	<polygon fill="#F2CB4A" stroke="#000000" stroke-width="2" stroke-miterlimit="10" points="1068.5,122.6 996.1,125.8 995.6,115.7 
		1068,112.4 	"/>
	<polygon fill="#F2CB4A" stroke="#000000" stroke-width="2" stroke-miterlimit="10" points="1136.5,147.6 1068.3,124.9 
		1071.9,115.3 1140.1,138.1 	"/>
	<polygon fill="#F2CB4A" stroke="#000000" stroke-width="2" stroke-miterlimit="10" points="1054.4,134.1 982.1,137.3 981.5,127.2 
		1053.9,124 	"/>
	<polygon fill="#F2CB4A" stroke="#000000" stroke-width="2" stroke-miterlimit="10" points="1173,166.5 1102.5,150.8 1105,140.9 
		1175.5,156.6 	"/>
	<polygon fill="#F2CB4A" stroke="#000000" stroke-width="2" stroke-miterlimit="10" points="1087.5,142.1 1015.4,148.3 
		1014.4,138.2 1086.6,132 	"/>
	<rect x="912.7" y="228.5" fill="#F2CB4A" stroke="#000000" stroke-width="2" stroke-miterlimit="10" width="72.4" height="10.2"/>
	<rect x="912.7" y="228.5" fill="#F2CB4A" stroke="#000000" stroke-width="2" stroke-miterlimit="10" width="72.4" height="10.2"/>
	<rect x="912.7" y="228.5" fill="#F2CB4A" stroke="#000000" stroke-width="2" stroke-miterlimit="10" width="72.4" height="10.2"/>
	<rect x="912.7" y="228.5" fill="#F2CB4A" stroke="#000000" stroke-width="2" stroke-miterlimit="10" width="72.4" height="10.2"/>
	<rect x="912.7" y="228.5" fill="#F2CB4A" stroke="#000000" stroke-width="2" stroke-miterlimit="10" width="72.4" height="10.2"/>
	<rect x="912.7" y="228.5" fill="#F2CB4A" stroke="#000000" stroke-width="2" stroke-miterlimit="10" width="72.4" height="10.2"/>
	<rect x="912.7" y="228.5" fill="#F2CB4A" stroke="#000000" stroke-width="2" stroke-miterlimit="10" width="72.4" height="10.2"/>
	<rect x="921.1" y="115.3" fill="#F2CB4A" stroke="#000000" stroke-width="2" stroke-miterlimit="10" width="72.4" height="10.2"/>
	<rect x="912.7" y="228.5" fill="#F2CB4A" stroke="#000000" stroke-width="2" stroke-miterlimit="10" width="72.4" height="10.2"/>
	<rect x="912.7" y="228.5" fill="#F2CB4A" stroke="#000000" stroke-width="2" stroke-miterlimit="10" width="72.4" height="10.2"/>
	<rect x="912.7" y="228.5" fill="#F2CB4A" stroke="#000000" stroke-width="2" stroke-miterlimit="10" width="72.4" height="10.2"/>
	<polygon fill="#F2CB4A" stroke="#000000" stroke-width="2" stroke-miterlimit="10" points="916.2,126.8 843.8,123.2 844.4,113.1 
		916.7,116.7 	"/>
	<polygon fill="#F2CB4A" stroke="#000000" stroke-width="2" stroke-miterlimit="10" points="1044.3,111.7 971.9,114.5 971.5,104.3 
		1043.8,101.5 	"/>
	<rect x="886.3" y="104.6" fill="#F2CB4A" stroke="#000000" stroke-width="2" stroke-miterlimit="10" width="72.4" height="10.2"/>
	<rect x="910.1" y="194.8" fill="#F2CB4A" stroke="#000000" stroke-width="2" stroke-miterlimit="10" width="72.4" height="10.2"/>
	<rect x="917.5" y="93" fill="#F2CB4A" stroke="#000000" stroke-width="2" stroke-miterlimit="10" width="72.4" height="10.2"/>
	<polygon fill="#F2CB4A" stroke="#000000" stroke-width="2" stroke-miterlimit="10" points="1066.5,94.2 994.5,102.2 993.3,92.1 
		1065.2,84.2 	"/>
	<polygon fill="#F2CB4A" stroke="#000000" stroke-width="2" stroke-miterlimit="10" points="911.2,104.1 839,99.8 839.7,89.6 
		911.9,94 	"/>
	<rect x="877.1" y="83.6" fill="#F2CB4A" stroke="#000000" stroke-width="2" stroke-miterlimit="10" width="72.4" height="10.2"/>
	<polygon fill="#F2CB4A" stroke="#000000" stroke-width="2" stroke-miterlimit="10" points="1038.1,86.9 967.6,92.8 966.5,81.7 
		1037.1,75.8 	"/>
	<polygon fill="#F2CB4A" stroke="#000000" stroke-width="2" stroke-miterlimit="10" points="999,79.1 926.6,81.9 926.1,71.8 
		998.5,69 	"/>
	<polygon fill="#F2CB4A" stroke="#000000" stroke-width="2" stroke-miterlimit="10" points="915.1,75.4 844.2,89.6 842,79.6 
		912.8,65.5 	"/>
	<polygon fill="#F2CB4A" stroke="#000000" stroke-width="2" stroke-miterlimit="10" points="967.4,69.4 895.2,63.7 896.1,53.5 
		968.3,59.2 	"/>
	<polygon fill="#F2CB4A" stroke="#000000" stroke-width="2" stroke-miterlimit="10" points="1057.2,83.7 990.6,64.3 993.7,55 
		1060.3,74.4 	"/>
	<polygon fill="#F2CB4A" stroke="#000000" stroke-width="2" stroke-miterlimit="10" points="992.8,56.8 923.1,54.4 923.5,44.7 
		993.2,47.1 	"/>
	<rect x="907.8" y="307.4" fill="#F2CB4A" stroke="#000000" stroke-width="2" stroke-miterlimit="10" width="69.7" height="9.7"/>
	<polygon fill="#F2CB4A" stroke="#000000" stroke-width="2" stroke-miterlimit="10" points="883.4,329.6 813.7,327.2 814.1,317.5 
		883.8,319.9 	"/>
	<rect x="845.1" y="307.8" fill="#F2CB4A" stroke="#000000" stroke-width="2" stroke-miterlimit="10" width="69.7" height="9.7"/>
	<rect x="886.8" y="317.7" fill="#F2CB4A" stroke="#000000" stroke-width="2" stroke-miterlimit="10" width="69.7" height="9.7"/>
	<rect x="1017.4" y="307.9" fill="#F2CB4A" stroke="#000000" stroke-width="2" stroke-miterlimit="10" width="69.7" height="9.7"/>
	<rect x="957.6" y="318.6" fill="#F2CB4A" stroke="#000000" stroke-width="2" stroke-miterlimit="10" width="69.7" height="9.7"/>
	<rect x="1027.1" y="318.2" fill="#F2CB4A" stroke="#000000" stroke-width="2" stroke-miterlimit="10" width="69.7" height="9.7"/>
	<rect x="903.5" y="328" fill="#F2CB4A" stroke="#000000" stroke-width="2" stroke-miterlimit="10" width="69.7" height="9.7"/>
	<rect x="827.4" y="329.3" fill="#F2CB4A" stroke="#000000" stroke-width="2" stroke-miterlimit="10" width="69.7" height="9.7"/>
	<rect x="995.9" y="329.3" fill="#F2CB4A" stroke="#000000" stroke-width="2" stroke-miterlimit="10" width="69.7" height="9.7"/>
	<rect x="867" y="338.7" fill="#F2CB4A" stroke="#000000" stroke-width="2" stroke-miterlimit="10" width="69.7" height="9.7"/>
	<rect x="939.1" y="339.2" fill="#F2CB4A" stroke="#000000" stroke-width="2" stroke-miterlimit="10" width="69.7" height="9.7"/>
	<rect x="1014.3" y="339.6" fill="#F2CB4A" stroke="#000000" stroke-width="2" stroke-miterlimit="10" width="69.7" height="9.7"/>
	<rect x="826.5" y="349.9" fill="#F2CB4A" stroke="#000000" stroke-width="2" stroke-miterlimit="10" width="69.7" height="9.7"/>
	<rect x="899.1" y="349.9" fill="#F2CB4A" stroke="#000000" stroke-width="2" stroke-miterlimit="10" width="69.7" height="9.7"/>
	<rect x="972.1" y="350.3" fill="#F2CB4A" stroke="#000000" stroke-width="2" stroke-miterlimit="10" width="69.7" height="9.7"/>
	<rect x="923.3" y="361.4" fill="#F2CB4A" stroke="#000000" stroke-width="2" stroke-miterlimit="10" width="69.7" height="9.7"/>
	<rect x="847.2" y="361.4" fill="#F2CB4A" stroke="#000000" stroke-width="2" stroke-miterlimit="10" width="69.7" height="9.7"/>
	<rect x="1003.3" y="361" fill="#F2CB4A" stroke="#000000" stroke-width="2" stroke-miterlimit="10" width="69.7" height="9.7"/>
	<rect x="836.2" y="372.5" fill="#F2CB4A" stroke="#000000" stroke-width="2" stroke-miterlimit="10" width="69.7" height="9.7"/>
	<rect x="909.2" y="371.7" fill="#F2CB4A" stroke="#000000" stroke-width="2" stroke-miterlimit="10" width="69.7" height="9.7"/>
	<rect x="982.2" y="371.3" fill="#F2CB4A" stroke="#000000" stroke-width="2" stroke-miterlimit="10" width="69.7" height="9.7"/>
	<rect x="841.5" y="384.5" fill="#F2CB4A" stroke="#000000" stroke-width="2" stroke-miterlimit="10" width="69.7" height="9.7"/>
	<rect x="913.2" y="383.2" fill="#F2CB4A" stroke="#000000" stroke-width="2" stroke-miterlimit="10" width="69.7" height="9.7"/>
	<rect x="994.5" y="383.2" fill="#F2CB4A" stroke="#000000" stroke-width="2" stroke-miterlimit="10" width="69.7" height="9.7"/>
	<rect x="848.9" y="396" fill="#F2CB4A" stroke="#000000" stroke-width="2" stroke-miterlimit="10" width="69.7" height="9.7"/>
	<rect x="919.3" y="395.2" fill="#F2CB4A" stroke="#000000" stroke-width="2" stroke-miterlimit="10" width="69.7" height="9.7"/>
	<rect x="988.8" y="395.6" fill="#F2CB4A" stroke="#000000" stroke-width="2" stroke-miterlimit="10" width="69.7" height="9.7"/>
	<rect x="852.5" y="407.1" fill="#F2CB4A" stroke="#000000" stroke-width="2" stroke-miterlimit="10" width="69.7" height="9.7"/>
	<rect x="951.4" y="405.5" fill="#F2CB4A" stroke="#000000" stroke-width="2" stroke-miterlimit="10" width="69.7" height="9.7"/>
	<rect x="855.5" y="419.1" fill="#F2CB4A" stroke="#000000" stroke-width="2" stroke-miterlimit="10" width="69.7" height="9.7"/>
	<rect x="925.5" y="417" fill="#F2CB4A" stroke="#000000" stroke-width="2" stroke-miterlimit="10" width="69.7" height="9.7"/>
	<rect x="973.9" y="428.5" fill="#F2CB4A" stroke="#000000" stroke-width="2" stroke-miterlimit="10" width="69.7" height="9.7"/>
	<rect x="903.5" y="429.8" fill="#F2CB4A" stroke="#000000" stroke-width="2" stroke-miterlimit="10" width="69.7" height="9.7"/>
	<rect x="866.1" y="440.1" fill="#F2CB4A" stroke="#000000" stroke-width="2" stroke-miterlimit="10" width="69.7" height="9.7"/>
	<rect x="949.2" y="440.1" fill="#F2CB4A" stroke="#000000" stroke-width="2" stroke-miterlimit="10" width="69.7" height="9.7"/>
	<rect x="872.7" y="450.4" fill="#F2CB4A" stroke="#000000" stroke-width="2" stroke-miterlimit="10" width="69.7" height="9.7"/>
	<rect x="961.6" y="450" fill="#F2CB4A" stroke="#000000" stroke-width="2" stroke-miterlimit="10" width="69.7" height="9.7"/>
	<rect x="881.7" y="465.6" fill="#F2CB4A" stroke="#000000" stroke-width="2" stroke-miterlimit="10" width="69.7" height="9.7"/>
	<rect x="953.4" y="465.6" fill="#F2CB4A" stroke="#000000" stroke-width="2" stroke-miterlimit="10" width="69.7" height="9.7"/>
	<rect x="888.8" y="474.2" fill="#F2CB4A" stroke="#000000" stroke-width="2" stroke-miterlimit="10" width="69.7" height="9.7"/>
	<rect x="957.8" y="475.9" fill="#F2CB4A" stroke="#000000" stroke-width="2" stroke-miterlimit="10" width="69.7" height="9.7"/>
</g>
<g id="bocale">
	<path opacity="0.61" fill="#4ABBB7" stroke="#000000" stroke-width="2" stroke-miterlimit="10" d="M743.1,171.5
		c45.3,102.6,90.6,205.3,135.8,307.9c52.1-1.2,104.2-2.4,156.3-3.6c47.7-104.4,95.4-208.8,143.1-313.1L743.1,171.5z"/>
</g>
<g id="Layer_6">
</g>
<g id="corps">
	<rect x="1031.1" y="501" fill="#4ABBB7" stroke="#000000" stroke-width="2" stroke-miterlimit="10" width="102.6" height="15.3"/>
	<path fill="#4ABBB7" stroke="#000000" stroke-width="2" stroke-miterlimit="10" d="M991.6,619.3h-72c-2.7,0-4.9-2.2-4.9-4.9V523
		c0-2.7,2.2-4.9,4.9-4.9h72c2.7,0,4.9,2.2,4.9,4.9v91.4C996.4,617.1,994.2,619.3,991.6,619.3z"/>
	<path fill="#4ABBB7" stroke="#000000" stroke-width="2" stroke-miterlimit="10" d="M1035.9,540.7c-52.9-0.3-105.7-0.7-158.6-1
		c-0.4-21.1-0.7-42.2-1.1-63.2c53.6-0.3,107.1-0.5,160.7-0.8C1036.6,497.3,1036.2,519,1035.9,540.7z"/>
</g>
<g id="manette">
	<path fill="#4ABBB7" stroke="#000000" stroke-width="2" stroke-miterlimit="10" d="M1154.2,597.2L1154.2,597.2
		c-11,0-19.9-8.9-19.9-19.9V430.2c0-11,8.9-19.9,19.9-19.9l0,0c11,0,19.9,8.9,19.9,19.9v147.1
		C1174.1,588.3,1165.2,597.2,1154.2,597.2z"/>
	<path stroke="#000000" stroke-width="2" stroke-miterlimit="10" d="M1155.8,577.2h-3.8c-3.8,0-6.9-3.1-6.9-6.9V437.3
		c0-3.8,3.1-6.9,6.9-6.9h3.8c3.8,0,6.9,3.1,6.9,6.9v132.9C1162.7,574.1,1159.6,577.2,1155.8,577.2z"/>
</g>
</svg>
