<?xml version="1.0" encoding="utf-8"?>
<!-- Generator: Adobe Illustrator 23.1.0, SVG Export Plug-In . SVG Version: 6.00 Build 0)  -->
<!DOCTYPE svg PUBLIC "-//W3C//DTD SVG 1.1//EN" "http://www.w3.org/Graphics/SVG/1.1/DTD/svg11.dtd" [
	<!ENTITY ns_extend "http://ns.adobe.com/Extensibility/1.0/">
	<!ENTITY ns_ai "http://ns.adobe.com/AdobeIllustrator/10.0/">
	<!ENTITY ns_graphs "http://ns.adobe.com/Graphs/1.0/">
	<!ENTITY ns_vars "http://ns.adobe.com/Variables/1.0/">
	<!ENTITY ns_imrep "http://ns.adobe.com/ImageReplacement/1.0/">
	<!ENTITY ns_sfw "http://ns.adobe.com/SaveForWeb/1.0/">
	<!ENTITY ns_custom "http://ns.adobe.com/GenericCustomNamespace/1.0/">
	<!ENTITY ns_adobe_xpath "http://ns.adobe.com/XPath/1.0/">
]>
<svg version="1.1" id="ampoule" xmlns:x="&ns_extend;" xmlns:i="&ns_ai;" xmlns:graph="&ns_graphs;"
	 xmlns="http://www.w3.org/2000/svg" xmlns:xlink="http://www.w3.org/1999/xlink" x="0px" y="0px" viewBox="0 0 1280 720"
	 enable-background="new 0 0 1280 720" xml:space="preserve">
<metadata>
	<sfw  xmlns="&ns_sfw;">
		<slices></slices>
		<sliceSourceBounds  bottomLeftOrigin="true" height="320.24" width="259" x="426" y="386.1"></sliceSourceBounds>
	</sfw>
</metadata>
<g id="ampoule_1_">
	<path fill="#EE5148" d="M500.64,245.23h111.32c0.64-18.5,5.74-34.45,16.91-47.21c42.42-47.21,44.97-98.24,4.15-152.78
		c-51.67-42.1-103.34-42.1-155.02,0c-40.51,50.4-37.64,98.88,0,146.09C492.66,209.18,501.28,227.05,500.64,245.23z"/>
</g>
<g id="baseampoule">
	<rect x="426" y="245.23" fill="#706C69" width="259" height="88.67"/>
</g>
<g id="element">
	<g id="Layer_4">
		<path fill="none" stroke="#EA7F7F" stroke-width="15.9483" stroke-linecap="round" stroke-miterlimit="10" d="M507.34,111.9
			c8.29-2.87,13.4-0.32,15.31,7.97c8.93,11.8,16.59,13.08,22.65,0c8.29-11.16,15.95-13.4,22.65,0c7.97,10.84,15.63,14.03,22.01,0
			c3.19-10.21,8.29-12.12,14.67-7.97"/>
	</g>
</g>
</svg>
