<?xml version="1.0" encoding="utf-8"?>
<!-- Generator: Adobe Illustrator 23.0.3, SVG Export Plug-In . SVG Version: 6.00 Build 0)  -->
<svg version="1.1" id="ampoule" xmlns="http://www.w3.org/2000/svg" xmlns:xlink="http://www.w3.org/1999/xlink" x="0px" y="0px"
	 viewBox="0 0 1280 720" enable-background="new 0 0 1280 720" xml:space="preserve">
<g id="ampoule_1_">
	<path fill="#46C879" d="M627.2,306.1h34.9c0.2-5.8,1.8-10.8,5.3-14.8c13.3-14.8,14.1-30.8,1.3-47.9c-16.2-13.2-32.4-13.2-48.6,0
		c-12.7,15.8-11.8,31,0,45.8C624.7,294.8,627.4,300.4,627.2,306.1z"/>
</g>
<g id="baseampoule">
	<rect x="603.8" y="306.1" fill="#706C69" width="81.2" height="27.8"/>
</g>
<g id="element">
	<g id="Layer_4">
		<path fill="none" stroke="#EA7F7F" stroke-width="5" stroke-linecap="round" stroke-miterlimit="10" d="M629.3,264.3
			c2.6-0.9,4.2-0.1,4.8,2.5c2.8,3.7,5.2,4.1,7.1,0c2.6-3.5,5-4.2,7.1,0c2.5,3.4,4.9,4.4,6.9,0c1-3.2,2.6-3.8,4.6-2.5"/>
	</g>
</g>
</svg>
